# xmcd
#
# Track frame offsets:
#	150
#	17330
#	32737
#	49802
#	63600
#	67112
#	80527
#	93140
#	105622
#	138015
#	142242
#	161832
#
# Disc length: 2247 seconds
#
# Revision: 1
# Processed by: cddbd v1.5.1PL2 Copyright (c) Steve Scherf et al.
# Submitted via: audiograbber 1.81.03
#
DISCID=a208c50c
DTITLE=Wellucken Allstars - Wellucken Allstars
DYEAR=1900
DGENRE=Deutsch
TTITLE0=Midnight Sandler
TTITLE1=Besoffen
TTITLE2=Andere
TTITLE3=Impressionen aus dem Land der Gräser and Farne
TTITLE4=Was ist los mit Dolp Hirben
TTITLE5=Nachts um Drei
TTITLE6=Legalize Erdbeerize
TTITLE7=Scheissidee
TTITLE8=Komme an ich bin in Liebe mit dir Honig
TTITLE9=Bonusdreck
TTITLE10=Sauerei
TTITLE11=Sandler Reprise
EXTD=
EXTT0=
EXTT1=
EXTT2=
EXTT3=
EXTT4=
EXTT5=
EXTT6=
EXTT7=
EXTT8=
EXTT9=
EXTT10=
EXTT11=
PLAYORDER=
